<svg width="79" height="49" viewBox="0 0 79 49" fill="none" xmlns="http://www.w3.org/2000/svg">
<rect width="79" height="48" rx="11" fill="white"/>
<path d="M11.28 10H21.28C22.6667 10 23.96 10.36 25.16 11.08C26.36 11.7733 27.3067 12.72 28 13.92C28.6933 15.0933 29.04 16.3467 29.04 17.68C29.04 19.12 28.7867 20.3733 28.28 21.44C27.7733 22.48 26.8267 23.28 25.44 23.84V24.16C26.7467 24.64 27.8 25.4933 28.6 26.72C29.4 27.9467 29.8 29.3733 29.8 31C29.8 32.3867 29.4933 33.6133 28.88 34.68C28.2667 35.72 27.4267 36.5333 26.36 37.12C25.2933 37.7067 24.0667 38 22.68 38H11.28V10ZM21.2 34.04C22.4267 34.04 23.44 33.64 24.24 32.84C25.0667 32.04 25.48 31.0533 25.48 29.88C25.48 28.7067 25.08 27.7467 24.28 27C23.48 26.2267 22.4533 25.84 21.2 25.84H15.4V34.04H21.2ZM20.48 22.16C21.7067 22.16 22.72 21.7733 23.52 21C24.3467 20.2267 24.76 19.2533 24.76 18.08C24.76 16.88 24.36 15.8933 23.56 15.12C22.76 14.3467 21.7333 13.96 20.48 13.96H15.4V22.16H20.48Z" fill="#1B3486"/>
<path d="M66.1803 14.4847H64.6049V11.8786C64.6049 11.445 64.2709 11.0858 63.8388 11.0561C63.2973 11.0206 62.7615 11 62.2417 11C56.6672 11 53.7146 13.0844 52.5006 14.2467C51.2876 13.0844 48.3328 11 42.7594 11C42.2396 11 41.7015 11.0206 41.1612 11.0561C40.7303 11.0847 40.3951 11.445 40.3951 11.8786V14.4835H38.8208C38.3682 14.4835 38 14.8542 38 15.3084V33.9787C38 34.2086 38.0958 34.4305 38.2645 34.5861C38.4343 34.7406 38.6635 34.8207 38.8903 34.7989C42.0048 34.5289 47.4231 34.4866 48.6759 35.5139C48.7455 35.5746 50.3916 37 52.4994 37C54.6073 37 56.2534 35.5746 56.3024 35.5322C57.5746 34.4866 62.9941 34.5289 66.1085 34.7989C66.3377 34.8218 66.5645 34.7406 66.7344 34.5861C66.9031 34.4294 67 34.2086 67 33.9787V15.3084C67.0011 14.8553 66.6329 14.4847 66.1803 14.4847ZM62.2417 12.6497C62.4788 12.6497 62.7205 12.6542 62.9645 12.6611V30.3258C62.8733 30.3258 62.7764 30.3258 62.6738 30.3258C60.526 30.3258 56.6592 30.534 53.3214 31.8142V15.7625C53.9153 15.0807 56.4392 12.6497 62.2417 12.6497ZM42.0367 12.6611C42.2806 12.6542 42.5223 12.6497 42.7594 12.6497C48.5654 12.6497 51.0767 15.0647 51.6798 15.7602V31.8142C48.3419 30.534 44.4751 30.3258 42.3262 30.3258C42.2236 30.3258 42.1279 30.3258 42.0367 30.3258V12.6611Z" fill="#1B3486"/>
</svg>
