<svg width="98" height="48" viewBox="0 0 98 48" fill="none" xmlns="http://www.w3.org/2000/svg">
<path d="M37 0C43.0751 5.15406e-07 48 4.92487 48 11V37C48 43.0751 43.0751 48 37 48H11C4.92487 48 1.28855e-07 43.0751 0 37V11C5.15422e-07 4.92487 4.92487 1.28852e-07 11 0H37ZM15 10V38H26.4004C27.7869 37.9999 29.0135 37.7067 30.0801 37.1201C31.1467 36.5335 31.9863 35.7197 32.5996 34.6797C33.2129 33.613 33.5195 32.3866 33.5195 31C33.5195 29.3733 33.1203 27.9464 32.3203 26.7197C31.5204 25.4931 30.4667 24.6402 29.1602 24.1602V23.8398C30.5466 23.2799 31.4933 22.4802 32 21.4404C32.5067 20.3738 32.7598 19.1197 32.7598 17.6797C32.7597 16.3465 32.413 15.0932 31.7197 13.9199C31.0264 12.72 30.0798 11.7734 28.8799 11.0801C27.6799 10.3601 26.3866 10 25 10H15ZM24.9199 25.8398C26.1733 25.8398 27.2 26.2267 28 27C28.8 27.7466 29.2002 28.7066 29.2002 29.8799C29.2002 31.0532 28.7866 32.0399 27.96 32.8398C27.16 33.6398 26.1466 34.04 24.9199 34.04H19.1201V25.8398H24.9199ZM24.2002 13.96C25.4534 13.96 26.4803 14.3468 27.2803 15.1201C28.0801 15.8934 28.4805 16.8802 28.4805 18.0801C28.4805 19.2533 28.0668 20.2267 27.2402 21C26.4403 21.7733 25.4268 22.1601 24.2002 22.1602H19.1201V13.96H24.2002Z" fill="black"/>
<path d="M87 0C93.0751 5.15406e-07 98 4.92487 98 11V37C98 43.0751 93.0751 48 87 48H61C54.9249 48 50 43.0751 50 37V11C50 4.92487 54.9249 1.28852e-07 61 0H87ZM84.2422 11C78.6677 11 75.7151 13.0847 74.501 14.2471C73.2881 13.0848 70.3329 11.0001 64.7598 11C64.2399 11 63.7015 11.0202 63.1611 11.0557C62.7302 11.0843 62.3955 11.4453 62.3955 11.8789V14.4834H60.8203C60.368 14.4837 60 14.8546 60 15.3086V33.9785C60 34.2085 60.0959 34.4304 60.2646 34.5859C60.4345 34.7404 60.6638 34.8206 60.8906 34.7988C64.0049 34.5289 69.4226 34.4866 70.6758 35.5137C70.7453 35.5743 72.3914 36.9998 74.499 37C76.6068 37 78.2537 35.5746 78.3027 35.5322C79.5753 34.4868 84.9941 34.5289 88.1084 34.7988C88.3375 34.8217 88.5645 34.7404 88.7344 34.5859C88.903 34.4292 89 34.2084 89 33.9785V15.3086C89.0011 14.8557 88.6331 14.4845 88.1807 14.4844H86.6045V11.8789C86.6045 11.4453 86.2709 11.0854 85.8389 11.0557C85.2975 11.0202 84.7619 11 84.2422 11ZM64.7598 12.6494C70.5646 12.6495 73.0762 15.0638 73.6797 15.7598V31.8145C70.3418 30.5343 66.475 30.3262 64.3262 30.3262H64.0371V12.6611C64.2809 12.6543 64.5228 12.6494 64.7598 12.6494ZM84.9648 12.6611V30.3262H84.6738C82.5261 30.3262 78.6592 30.5343 75.3213 31.8145V15.7627C75.9152 15.0809 78.4397 12.6494 84.2422 12.6494C84.4792 12.6494 84.7211 12.6543 84.9648 12.6611Z" fill="black"/>
</svg>
