<svg width="93" height="9" viewBox="0 0 93 9" fill="none" xmlns="http://www.w3.org/2000/svg">
<path d="M5.36403 8.54395H2.58982e-05V0.143945H1.42803V7.23595H5.36403V8.54395ZM7.13965 1.73994C6.89965 1.73994 6.69565 1.65595 6.52765 1.48795C6.35965 1.31995 6.27565 1.11594 6.27565 0.875945C6.27565 0.635945 6.35965 0.431945 6.52765 0.263945C6.69565 0.087945 6.89965 -5.48363e-05 7.13965 -5.48363e-05C7.37965 -5.48363e-05 7.58365 0.087945 7.75165 0.263945C7.92765 0.431945 8.01565 0.635945 8.01565 0.875945C8.01565 1.11594 7.92765 1.31995 7.75165 1.48795C7.58365 1.65595 7.37965 1.73994 7.13965 1.73994ZM7.83565 2.54395V8.54395H6.45565V2.54395H7.83565ZM9.52456 -5.48363e-05H10.9046V3.19195C10.9926 3.04795 11.1246 2.91595 11.3006 2.79594C11.4846 2.67595 11.6926 2.57995 11.9246 2.50795C12.1646 2.43595 12.4086 2.39995 12.6566 2.39995C13.2166 2.39995 13.7206 2.53995 14.1686 2.81994C14.6246 3.09195 14.9806 3.46795 15.2366 3.94795C15.4926 4.42795 15.6206 4.95995 15.6206 5.54395C15.6206 6.12795 15.4926 6.65995 15.2366 7.13995C14.9806 7.61995 14.6246 7.99995 14.1686 8.27995C13.7206 8.55195 13.2166 8.68795 12.6566 8.68795C12.2966 8.68795 11.9646 8.61195 11.6606 8.45995C11.3566 8.29995 11.1326 8.10395 10.9886 7.87195H10.8806L10.6766 8.54395H9.52456V-5.48363e-05ZM12.5366 7.45195C12.8646 7.45195 13.1566 7.37195 13.4126 7.21195C13.6686 7.04395 13.8686 6.81995 14.0126 6.53995C14.1646 6.25195 14.2406 5.93595 14.2406 5.59195C14.2406 5.23995 14.1646 4.92395 14.0126 4.64395C13.8686 4.35594 13.6686 4.13195 13.4126 3.97195C13.1566 3.80395 12.8646 3.71995 12.5366 3.71995C12.2166 3.71995 11.9326 3.79995 11.6846 3.95994C11.4366 4.11995 11.2446 4.33995 11.1086 4.61995C10.9726 4.89995 10.9046 5.22395 10.9046 5.59195C10.9046 5.95195 10.9726 6.27195 11.1086 6.55195C11.2446 6.83195 11.4366 7.05195 11.6846 7.21195C11.9326 7.37195 12.2166 7.45195 12.5366 7.45195ZM16.6467 2.54395H19.8267V3.85194H18.0267V8.54395H16.6467V2.54395ZM25.3206 8.54395L25.1166 7.87195H24.9966C24.8606 8.10395 24.6406 8.29995 24.3366 8.45995C24.0326 8.61195 23.6966 8.68795 23.3286 8.68795C22.7686 8.68795 22.2646 8.55195 21.8166 8.27995C21.3686 7.99995 21.0166 7.61995 20.7606 7.13995C20.5046 6.65995 20.3766 6.12795 20.3766 5.54395C20.3766 4.95995 20.5046 4.42795 20.7606 3.94795C21.0166 3.46795 21.3686 3.09195 21.8166 2.81994C22.2646 2.53995 22.7686 2.39995 23.3286 2.39995C23.5846 2.39995 23.8286 2.43595 24.0606 2.50795C24.3006 2.57995 24.5086 2.67595 24.6846 2.79594C24.8686 2.91595 25.0046 3.04795 25.0926 3.19195V2.54395H26.4726V8.54395H25.3206ZM23.4486 7.45195C23.7686 7.45195 24.0526 7.37195 24.3006 7.21195C24.5486 7.05195 24.7406 6.83195 24.8766 6.55195C25.0206 6.27195 25.0926 5.95195 25.0926 5.59195C25.0926 5.22395 25.0206 4.89995 24.8766 4.61995C24.7406 4.33995 24.5486 4.11995 24.3006 3.95994C24.0526 3.79995 23.7686 3.71995 23.4486 3.71995C23.1286 3.71995 22.8366 3.80395 22.5726 3.97195C22.3166 4.13195 22.1166 4.35594 21.9726 4.64395C21.8286 4.92395 21.7566 5.23995 21.7566 5.59195C21.7566 5.93595 21.8286 6.25195 21.9726 6.53995C22.1166 6.81995 22.3166 7.04395 22.5726 7.21195C22.8366 7.37195 23.1286 7.45195 23.4486 7.45195ZM27.9788 2.54395H31.1588V3.85194H29.3588V8.54395H27.9788V2.54395ZM32.9326 1.73994C32.6926 1.73994 32.4886 1.65595 32.3206 1.48795C32.1526 1.31995 32.0686 1.11594 32.0686 0.875945C32.0686 0.635945 32.1526 0.431945 32.3206 0.263945C32.4886 0.087945 32.6926 -5.48363e-05 32.9326 -5.48363e-05C33.1726 -5.48363e-05 33.3766 0.087945 33.5446 0.263945C33.7206 0.431945 33.8086 0.635945 33.8086 0.875945C33.8086 1.11594 33.7206 1.31995 33.5446 1.48795C33.3766 1.65595 33.1726 1.73994 32.9326 1.73994ZM33.6286 2.54395V8.54395H32.2486V2.54395H33.6286ZM36.2175 5.95195C36.2575 6.23995 36.3495 6.49195 36.4935 6.70795C36.6455 6.91595 36.8295 7.07595 37.0455 7.18795C37.2615 7.29995 37.4975 7.35595 37.7535 7.35595C38.1055 7.35595 38.4055 7.27995 38.6535 7.12795C38.9095 6.97595 39.1055 6.75195 39.2415 6.45595L40.5015 6.86395C40.2935 7.44795 39.9415 7.89995 39.4455 8.21995C38.9575 8.53195 38.3935 8.68795 37.7535 8.68795C37.2015 8.68795 36.7015 8.54795 36.2535 8.26795C35.8135 7.98795 35.4655 7.60795 35.2095 7.12795C34.9615 6.63995 34.8375 6.09995 34.8375 5.50795C34.8375 4.93195 34.9615 4.40795 35.2095 3.93595C35.4655 3.45595 35.8135 3.07994 36.2535 2.80795C36.7015 2.53595 37.2015 2.39995 37.7535 2.39995C38.3055 2.39995 38.8015 2.53595 39.2415 2.80795C39.6895 3.07994 40.0375 3.45194 40.2855 3.92395C40.5415 4.38795 40.6735 4.91195 40.6815 5.49595V5.95195H36.2175ZM37.7535 3.73195C37.3935 3.73195 37.0775 3.83995 36.8055 4.05595C36.5335 4.27195 36.3495 4.55595 36.2535 4.90795H39.2655C39.1695 4.55595 38.9855 4.27195 38.7135 4.05595C38.4415 3.83995 38.1215 3.73195 37.7535 3.73195ZM41.2946 7.23595H44.3786C44.3786 7.06795 44.3266 6.91995 44.2226 6.79195C44.1266 6.65595 44.0026 6.53595 43.8506 6.43195C43.7066 6.32795 43.4986 6.19195 43.2266 6.02395C42.8346 5.79195 42.5106 5.57995 42.2546 5.38795C41.9986 5.19595 41.7786 4.94795 41.5946 4.64395C41.4186 4.33195 41.3306 3.97195 41.3306 3.56395V2.54395H45.6986V3.85194H42.8666C42.8666 4.01995 42.9146 4.17595 43.0106 4.31994C43.1146 4.45595 43.2466 4.57995 43.4066 4.69195C43.5666 4.79595 43.7786 4.93195 44.0426 5.09995C44.4346 5.32395 44.7546 5.53595 45.0026 5.73595C45.2506 5.92795 45.4626 6.17595 45.6386 6.47995C45.8226 6.77595 45.9146 7.12395 45.9146 7.52395V8.54395H41.2946V7.23595ZM52.347 2.41194C52.939 2.41194 53.467 2.54794 53.931 2.81994C54.395 3.09195 54.755 3.46795 55.011 3.94795C55.275 4.41995 55.407 4.95195 55.407 5.54395C55.407 6.13595 55.275 6.67195 55.011 7.15195C54.755 7.62395 54.395 7.99995 53.931 8.27995C53.467 8.55195 52.939 8.68795 52.347 8.68795H52.323C51.739 8.68795 51.215 8.55195 50.751 8.27995C50.287 7.99995 49.923 7.62395 49.659 7.15195C49.403 6.67195 49.275 6.13595 49.275 5.54395C49.275 4.95195 49.403 4.41995 49.659 3.94795C49.923 3.46795 50.287 3.09195 50.751 2.81994C51.215 2.54794 51.739 2.41194 52.323 2.41194H52.347ZM52.347 7.30795C52.851 7.30795 53.255 7.14395 53.559 6.81595C53.871 6.47995 54.027 6.05595 54.027 5.54395C54.027 5.03195 53.875 4.61195 53.571 4.28395C53.267 3.95595 52.859 3.79194 52.347 3.79194H52.323C51.819 3.79194 51.415 3.95595 51.111 4.28395C50.807 4.61195 50.655 5.03195 50.655 5.54395C50.655 6.05595 50.807 6.47995 51.111 6.81595C51.415 7.14395 51.819 7.30795 52.323 7.30795H52.347ZM58.2919 1.54795V2.54395H59.7559V3.85194H58.2919V8.54395H56.9119V3.85194H55.8919V2.54395H56.9119V0.143945H59.9599V1.54795H58.2919ZM63.8672 0.143945H66.9632C67.4592 0.143945 67.8872 0.263945 68.2472 0.503945C68.6152 0.735945 68.8912 1.03594 69.0752 1.40394C69.2672 1.76395 69.3632 2.13595 69.3632 2.51994C69.3632 2.95195 69.2792 3.31595 69.1112 3.61195C68.9432 3.90795 68.6672 4.13195 68.2832 4.28395V4.40394C68.6672 4.53995 68.9832 4.79595 69.2312 5.17195C69.4872 5.54795 69.6152 5.97195 69.6152 6.44395C69.6152 6.87595 69.5192 7.25195 69.3272 7.57195C69.1352 7.88395 68.8712 8.12395 68.5352 8.29195C68.1992 8.45995 67.8152 8.54395 67.3832 8.54395H63.8672V0.143945ZM66.9392 7.16395C67.2752 7.16395 67.5552 7.05595 67.7792 6.83995C68.0112 6.62395 68.1272 6.35595 68.1272 6.03595C68.1272 5.71595 68.0152 5.45595 67.7912 5.25595C67.5672 5.04795 67.2832 4.94395 66.9392 4.94395H65.2952V7.16395H66.9392ZM66.7232 3.74395C67.0592 3.74395 67.3392 3.63995 67.5632 3.43194C67.7952 3.22395 67.9112 2.95995 67.9112 2.63995C67.9112 2.31194 67.7992 2.04394 67.5752 1.83595C67.3592 1.62794 67.0752 1.52394 66.7232 1.52394H65.2952V3.74395H66.7232ZM71.7839 5.95195C71.8239 6.23995 71.9159 6.49195 72.0599 6.70795C72.2119 6.91595 72.3959 7.07595 72.6119 7.18795C72.8279 7.29995 73.0639 7.35595 73.3199 7.35595C73.6719 7.35595 73.9719 7.27995 74.2199 7.12795C74.4759 6.97595 74.6719 6.75195 74.8079 6.45595L76.0679 6.86395C75.8599 7.44795 75.5079 7.89995 75.0119 8.21995C74.5239 8.53195 73.9599 8.68795 73.3199 8.68795C72.7679 8.68795 72.2679 8.54795 71.8199 8.26795C71.3799 7.98795 71.0319 7.60795 70.7759 7.12795C70.5279 6.63995 70.4039 6.09995 70.4039 5.50795C70.4039 4.93195 70.5279 4.40795 70.7759 3.93595C71.0319 3.45595 71.3799 3.07994 71.8199 2.80795C72.2679 2.53595 72.7679 2.39995 73.3199 2.39995C73.8719 2.39995 74.3679 2.53595 74.8079 2.80795C75.2559 3.07994 75.6039 3.45194 75.8519 3.92395C76.1079 4.38795 76.2399 4.91195 76.2479 5.49595V5.95195H71.7839ZM73.3199 3.73195C72.9599 3.73195 72.6439 3.83995 72.3719 4.05595C72.0999 4.27195 71.9159 4.55595 71.8199 4.90795H74.8319C74.7359 4.55595 74.5519 4.27195 74.2799 4.05595C74.0079 3.83995 73.6879 3.73195 73.3199 3.73195ZM77.221 2.54395H80.401V3.85194H78.601V8.54395H77.221V2.54395ZM82.8108 -5.48363e-05V8.54395H81.4308V-5.48363e-05H82.8108ZM85.1865 1.73994C84.9465 1.73994 84.7425 1.65595 84.5745 1.48795C84.4065 1.31995 84.3225 1.11594 84.3225 0.875945C84.3225 0.635945 84.4065 0.431945 84.5745 0.263945C84.7425 0.087945 84.9465 -5.48363e-05 85.1865 -5.48363e-05C85.4265 -5.48363e-05 85.6305 0.087945 85.7985 0.263945C85.9745 0.431945 86.0625 0.635945 86.0625 0.875945C86.0625 1.11594 85.9745 1.31995 85.7985 1.48795C85.6305 1.65595 85.4265 1.73994 85.1865 1.73994ZM85.8825 2.54395V8.54395H84.5025V2.54395H85.8825ZM88.7594 3.09595H88.8674C88.9794 2.89594 89.1514 2.73194 89.3834 2.60394C89.6154 2.46794 89.9034 2.39995 90.2474 2.39995C90.9754 2.39995 91.5514 2.63995 91.9754 3.11995C92.3994 3.59195 92.6114 4.23195 92.6114 5.03995V8.54395H91.2314V5.51995C91.2314 4.89595 91.1354 4.43195 90.9434 4.12794C90.7594 3.81595 90.4714 3.65995 90.0794 3.65995C89.6634 3.65995 89.3514 3.79595 89.1434 4.06795C88.9354 4.33995 88.8314 4.74395 88.8314 5.27995V8.54395H87.4514V2.54395H88.6034L88.7594 3.09595Z" fill="black"/>
</svg>
