<svg width="358" height="37" viewBox="0 0 358 37" fill="none" xmlns="http://www.w3.org/2000/svg">
<path d="M-4.79817e-06 28.56V24.72H3.76V4.4H-4.79817e-06V0.559996H14.2C15.88 0.559996 17.3467 0.853329 18.6 1.44C19.8533 2 20.8267 2.81333 21.52 3.88C22.24 4.92 22.6 6.16 22.6 7.6V8C22.6 9.28 22.36 10.3333 21.88 11.16C21.4 11.9867 20.8133 12.6267 20.12 13.08C19.4533 13.5333 18.8133 13.8533 18.2 14.04V14.68C18.8133 14.84 19.4667 15.16 20.16 15.64C20.88 16.0933 21.48 16.7333 21.96 17.56C22.4667 18.3867 22.72 19.4667 22.72 20.8V21.2C22.72 22.7467 22.36 24.0667 21.64 25.16C20.92 26.2533 19.92 27.0933 18.64 27.68C17.3867 28.2667 15.9333 28.56 14.28 28.56H-4.79817e-06ZM8.12 24.64H13.76C15.2 24.64 16.3333 24.2933 17.16 23.6C17.9867 22.9067 18.4 21.9467 18.4 20.72V20.36C18.4 19.1333 17.9867 18.1733 17.16 17.48C16.36 16.7867 15.2267 16.44 13.76 16.44H8.12V24.64ZM8.12 12.48H13.76C15.12 12.48 16.2133 12.1467 17.04 11.48C17.8667 10.7867 18.28 9.85333 18.28 8.68V8.28C18.28 7.10666 17.8667 6.18666 17.04 5.52C16.24 4.82666 15.1467 4.48 13.76 4.48H8.12V12.48ZM35.9234 29.12C33.9234 29.12 32.1768 28.7067 30.6834 27.88C29.1901 27.0267 28.0168 25.84 27.1634 24.32C26.3368 22.7733 25.9234 20.9867 25.9234 18.96V18.48C25.9234 16.4267 26.3368 14.64 27.1634 13.12C27.9901 11.5733 29.1368 10.3867 30.6034 9.56C32.0968 8.70666 33.8168 8.28 35.7634 8.28C37.6568 8.28 39.3101 8.70666 40.7234 9.56C42.1634 10.3867 43.2834 11.5467 44.0834 13.04C44.8834 14.5333 45.2834 16.28 45.2834 18.28V19.84H30.1234C30.1768 21.5733 30.7501 22.96 31.8434 24C32.9634 25.0133 34.3501 25.52 36.0034 25.52C37.5501 25.52 38.7101 25.1733 39.4834 24.48C40.2834 23.7867 40.8968 22.9867 41.3234 22.08L44.7234 23.84C44.3501 24.5867 43.8034 25.3733 43.0834 26.2C42.3901 27.0267 41.4701 27.72 40.3234 28.28C39.1768 28.84 37.7101 29.12 35.9234 29.12ZM30.1634 16.68H41.0834C40.9768 15.1867 40.4434 14.0267 39.4834 13.2C38.5234 12.3467 37.2701 11.92 35.7234 11.92C34.1768 11.92 32.9101 12.3467 31.9234 13.2C30.9634 14.0267 30.3768 15.1867 30.1634 16.68ZM49.4428 28.56V8.84H53.4828V11.16H54.1228C54.4428 10.3333 54.9495 9.73333 55.6428 9.36C56.3628 8.96 57.2428 8.76 58.2828 8.76H60.6428V12.48H58.1228C56.7895 12.48 55.6961 12.8533 54.8428 13.6C53.9895 14.32 53.5628 15.44 53.5628 16.96V28.56H49.4428ZM64.1116 28.56V0.559996H68.2316V28.56H64.1116ZM73.5459 28.56V8.84H77.6659V28.56H73.5459ZM75.6259 6.16C74.8259 6.16 74.1459 5.90666 73.5859 5.4C73.0526 4.86666 72.7859 4.18666 72.7859 3.36C72.7859 2.53333 73.0526 1.86666 73.5859 1.36C74.1459 0.826663 74.8259 0.559996 75.6259 0.559996C76.4526 0.559996 77.1326 0.826663 77.6659 1.36C78.1993 1.86666 78.4659 2.53333 78.4659 3.36C78.4659 4.18666 78.1993 4.86666 77.6659 5.4C77.1326 5.90666 76.4526 6.16 75.6259 6.16ZM82.9803 28.56V8.84H87.0203V11.8H87.6603C88.0336 11 88.7003 10.2533 89.6603 9.56C90.6203 8.86666 92.047 8.52 93.9403 8.52C95.4336 8.52 96.7536 8.85333 97.9003 9.52C99.0736 10.1867 99.9936 11.1333 100.66 12.36C101.327 13.56 101.66 15.0133 101.66 16.72V28.56H97.5403V17.04C97.5403 15.3333 97.1136 14.08 96.2603 13.28C95.407 12.4533 94.2336 12.04 92.7403 12.04C91.0336 12.04 89.6603 12.6 88.6203 13.72C87.607 14.84 87.1003 16.4667 87.1003 18.6V28.56H82.9803ZM116.065 28.56V0.559996H120.385V24.64H133.865V28.56H116.065ZM137.143 28.56V8.84H141.263V28.56H137.143ZM139.223 6.16C138.423 6.16 137.743 5.90666 137.183 5.4C136.649 4.86666 136.383 4.18666 136.383 3.36C136.383 2.53333 136.649 1.86666 137.183 1.36C137.743 0.826663 138.423 0.559996 139.223 0.559996C140.049 0.559996 140.729 0.826663 141.263 1.36C141.796 1.86666 142.063 2.53333 142.063 3.36C142.063 4.18666 141.796 4.86666 141.263 5.4C140.729 5.90666 140.049 6.16 139.223 6.16ZM157.977 29.12C156.057 29.12 154.577 28.7733 153.537 28.08C152.524 27.3867 151.764 26.6133 151.257 25.76H150.617V28.56H146.577V0.559996H150.697V11.52H151.337C151.657 10.9867 152.084 10.48 152.617 10C153.151 9.49333 153.857 9.08 154.737 8.76C155.617 8.44 156.697 8.28 157.977 8.28C159.631 8.28 161.151 8.68 162.537 9.48C163.924 10.28 165.031 11.44 165.857 12.96C166.684 14.48 167.097 16.2933 167.097 18.4V19C167.097 21.1333 166.671 22.96 165.817 24.48C164.991 25.9733 163.884 27.12 162.497 27.92C161.137 28.72 159.631 29.12 157.977 29.12ZM156.777 25.52C158.564 25.52 160.031 24.9467 161.177 23.8C162.351 22.6533 162.937 21.0133 162.937 18.88V18.52C162.937 16.4133 162.364 14.7867 161.217 13.64C160.071 12.4933 158.591 11.92 156.777 11.92C155.017 11.92 153.551 12.4933 152.377 13.64C151.231 14.7867 150.657 16.4133 150.657 18.52V18.88C150.657 21.0133 151.231 22.6533 152.377 23.8C153.551 24.9467 155.017 25.52 156.777 25.52ZM171.402 28.56V8.84H175.442V11.16H176.082C176.402 10.3333 176.909 9.73333 177.602 9.36C178.322 8.96 179.202 8.76 180.242 8.76H182.602V12.48H180.082C178.749 12.48 177.656 12.8533 176.802 13.6C175.949 14.32 175.522 15.44 175.522 16.96V28.56H171.402ZM191.644 29.12C190.231 29.12 188.964 28.88 187.844 28.4C186.751 27.92 185.871 27.2133 185.204 26.28C184.564 25.3467 184.244 24.2133 184.244 22.88C184.244 21.52 184.564 20.4 185.204 19.52C185.871 18.6133 186.764 17.9333 187.884 17.48C189.031 17.0267 190.324 16.8 191.764 16.8H197.764V15.52C197.764 14.3733 197.417 13.4533 196.724 12.76C196.031 12.0667 194.964 11.72 193.524 11.72C192.111 11.72 191.031 12.0533 190.284 12.72C189.537 13.3867 189.044 14.2533 188.804 15.32L184.964 14.08C185.284 13.0133 185.791 12.0533 186.484 11.2C187.204 10.32 188.151 9.61333 189.324 9.08C190.497 8.54666 191.911 8.28 193.564 8.28C196.124 8.28 198.137 8.93333 199.604 10.24C201.071 11.5467 201.804 13.4 201.804 15.8V23.92C201.804 24.72 202.177 25.12 202.924 25.12H204.604V28.56H201.524C200.591 28.56 199.831 28.32 199.244 27.84C198.657 27.36 198.364 26.7067 198.364 25.88V25.76H197.764C197.551 26.16 197.231 26.6267 196.804 27.16C196.377 27.6933 195.751 28.16 194.924 28.56C194.097 28.9333 193.004 29.12 191.644 29.12ZM192.244 25.72C193.897 25.72 195.231 25.2533 196.244 24.32C197.257 23.36 197.764 22.0533 197.764 20.4V20H192.004C190.911 20 190.031 20.24 189.364 20.72C188.697 21.1733 188.364 21.8533 188.364 22.76C188.364 23.6667 188.711 24.3867 189.404 24.92C190.097 25.4533 191.044 25.72 192.244 25.72ZM207.81 28.56V8.84H211.85V11.16H212.49C212.81 10.3333 213.317 9.73333 214.01 9.36C214.73 8.96 215.61 8.76 216.65 8.76H219.01V12.48H216.49C215.157 12.48 214.063 12.8533 213.21 13.6C212.357 14.32 211.93 15.44 211.93 16.96V28.56H207.81ZM224.759 36.56V32.96H235.759C236.505 32.96 236.879 32.56 236.879 31.76V25.68H236.239C235.999 26.2133 235.625 26.7333 235.119 27.24C234.639 27.72 233.985 28.12 233.159 28.44C232.332 28.76 231.292 28.92 230.039 28.92C228.545 28.92 227.212 28.5867 226.039 27.92C224.865 27.2533 223.945 26.3067 223.279 25.08C222.612 23.8533 222.279 22.4 222.279 20.72V8.84H226.399V20.4C226.399 22.1067 226.825 23.3733 227.679 24.2C228.532 25 229.719 25.4 231.239 25.4C232.919 25.4 234.265 24.84 235.279 23.72C236.319 22.6 236.839 20.9733 236.839 18.84V8.84H240.959V32.6C240.959 33.8 240.599 34.76 239.879 35.48C239.185 36.2 238.225 36.56 236.999 36.56H224.759ZM265.244 29.12C263.244 29.12 261.458 28.6933 259.884 27.84C258.311 26.96 257.071 25.68 256.164 24C255.258 22.32 254.804 20.2667 254.804 17.84V11.28C254.804 7.62666 255.804 4.84 257.804 2.92C259.804 0.973329 262.511 -4.29153e-06 265.924 -4.29153e-06C269.284 -4.29153e-06 271.871 0.919996 273.684 2.76C275.498 4.57333 276.404 7.01333 276.404 10.08V10.28H272.124V9.96C272.124 8.81333 271.898 7.78666 271.444 6.88C270.991 5.94666 270.311 5.21333 269.404 4.68C268.498 4.14666 267.338 3.88 265.924 3.88C263.791 3.88 262.124 4.53333 260.924 5.84C259.724 7.12 259.124 8.90666 259.124 11.2V17.92C259.124 20.1867 259.724 21.9867 260.924 23.32C262.124 24.6267 263.804 25.28 265.964 25.28C268.098 25.28 269.658 24.6933 270.644 23.52C271.631 22.3467 272.124 20.8267 272.124 18.96V18.44H264.604V14.72H276.404V28.56H272.404V25.72H271.764C271.524 26.2267 271.164 26.7467 270.684 27.28C270.231 27.8133 269.564 28.2533 268.684 28.6C267.831 28.9467 266.684 29.12 265.244 29.12ZM288.85 28.92C287.356 28.92 286.023 28.5867 284.85 27.92C283.676 27.2533 282.756 26.3067 282.09 25.08C281.423 23.8533 281.09 22.3867 281.09 20.68V8.84H285.21V20.4C285.21 22.1067 285.636 23.3733 286.49 24.2C287.343 25 288.53 25.4 290.05 25.4C291.73 25.4 293.076 24.84 294.09 23.72C295.13 22.5733 295.65 20.9333 295.65 18.8V8.84H299.77V28.56H295.73V25.6H295.09C294.716 26.4 294.05 27.16 293.09 27.88C292.13 28.5733 290.716 28.92 288.85 28.92ZM305.06 28.56V8.84H309.18V28.56H305.06ZM307.14 6.16C306.34 6.16 305.66 5.90666 305.1 5.4C304.567 4.86666 304.3 4.18666 304.3 3.36C304.3 2.53333 304.567 1.86666 305.1 1.36C305.66 0.826663 306.34 0.559996 307.14 0.559996C307.967 0.559996 308.647 0.826663 309.18 1.36C309.713 1.86666 309.98 2.53333 309.98 3.36C309.98 4.18666 309.713 4.86666 309.18 5.4C308.647 5.90666 307.967 6.16 307.14 6.16ZM322.654 29.12C321.028 29.12 319.521 28.72 318.134 27.92C316.748 27.12 315.628 25.9733 314.774 24.48C313.948 22.96 313.534 21.1333 313.534 19V18.4C313.534 16.2933 313.948 14.48 314.774 12.96C315.601 11.44 316.708 10.28 318.094 9.48C319.481 8.68 321.001 8.28 322.654 8.28C323.934 8.28 325.001 8.44 325.854 8.76C326.734 9.08 327.454 9.49333 328.014 10C328.574 10.48 329.001 10.9867 329.294 11.52H329.934V0.559996H334.054V28.56H330.014V25.76H329.374C328.868 26.6133 328.094 27.3867 327.054 28.08C326.041 28.7733 324.574 29.12 322.654 29.12ZM323.814 25.52C325.601 25.52 327.068 24.9467 328.214 23.8C329.388 22.6533 329.974 21.0133 329.974 18.88V18.52C329.974 16.4133 329.401 14.7867 328.254 13.64C327.108 12.4933 325.628 11.92 323.814 11.92C322.054 11.92 320.588 12.4933 319.414 13.64C318.268 14.7867 317.694 16.4133 317.694 18.52V18.88C317.694 21.0133 318.268 22.6533 319.414 23.8C320.588 24.9467 322.054 25.52 323.814 25.52ZM348.359 29.12C346.359 29.12 344.613 28.7067 343.119 27.88C341.626 27.0267 340.453 25.84 339.599 24.32C338.773 22.7733 338.359 20.9867 338.359 18.96V18.48C338.359 16.4267 338.773 14.64 339.599 13.12C340.426 11.5733 341.573 10.3867 343.039 9.56C344.533 8.70666 346.253 8.28 348.199 8.28C350.093 8.28 351.746 8.70666 353.159 9.56C354.599 10.3867 355.719 11.5467 356.519 13.04C357.319 14.5333 357.719 16.28 357.719 18.28V19.84H342.559C342.613 21.5733 343.186 22.96 344.279 24C345.399 25.0133 346.786 25.52 348.439 25.52C349.986 25.52 351.146 25.1733 351.919 24.48C352.719 23.7867 353.333 22.9867 353.759 22.08L357.159 23.84C356.786 24.5867 356.239 25.3733 355.519 26.2C354.826 27.0267 353.906 27.72 352.759 28.28C351.613 28.84 350.146 29.12 348.359 29.12ZM342.599 16.68H353.519C353.413 15.1867 352.879 14.0267 351.919 13.2C350.959 12.3467 349.706 11.92 348.159 11.92C346.613 11.92 345.346 12.3467 344.359 13.2C343.399 14.0267 342.813 15.1867 342.599 16.68Z" fill="white"/>
</svg>
