<svg width="150" height="27" viewBox="0 0 150 27" fill="none" xmlns="http://www.w3.org/2000/svg">
<path d="M15.7802 27H0.372776V0.171104H3.20897V24.3938H15.7802V27ZM20.2474 0.171104H23.1986V27H20.2474V0.171104ZM29.9415 0.171104H64.8957C66.071 0.171104 67.1953 0.490496 68.2684 1.12928C69.3416 1.76806 70.2103 2.63681 70.8747 3.73551C71.539 4.83422 71.8712 6.04791 71.8712 7.37658C71.8712 8.88411 71.6284 10.1361 71.143 11.1326C70.683 12.1291 69.8015 12.9084 68.4984 13.4706V13.7005C69.7504 14.1349 70.7214 14.9525 71.4113 16.1535C72.1267 17.3544 72.4844 18.7725 72.4844 20.4078C72.4844 21.6853 72.2161 22.8224 71.6795 23.8189C71.143 24.8154 70.3892 25.5947 69.4183 26.1568C68.4729 26.7189 67.3869 27 66.1605 27H29.9415V0.171104ZM64.7424 24.2405C66.071 24.2405 67.1697 23.8061 68.0385 22.9373C68.9072 22.043 69.3416 20.906 69.3416 19.5262C69.3416 18.1976 68.9072 17.1116 68.0385 16.2684C67.1953 15.3997 66.0966 14.9653 64.7424 14.9653H32.8926V24.2405H64.7424ZM64.0525 12.2058C65.3811 12.2058 66.4799 11.7714 67.3486 10.9027C68.2173 10.0084 68.6517 8.90966 68.6517 7.60654C68.6517 6.22677 68.2173 5.10251 67.3486 4.23377C66.5054 3.36502 65.4067 2.93065 64.0525 2.93065H32.8926V12.2058H64.0525ZM77.7005 27V0.171104H113.306C114.686 0.171104 115.912 0.47772 116.986 1.09095C118.084 1.70418 118.94 2.56015 119.554 3.65886C120.167 4.73202 120.473 5.9457 120.473 7.29993C120.473 9.11407 119.924 10.6727 118.825 11.9758C117.727 13.2789 116.309 14.071 114.571 14.3521L80.3067 14.4287V27H77.7005ZM113.076 12.0525C114.507 12.0525 115.67 11.6181 116.564 10.7494C117.484 9.85506 117.944 8.70525 117.944 7.29993C117.944 5.8946 117.484 4.75757 116.564 3.88882C115.67 2.99453 114.507 2.54738 113.076 2.54738H80.3067V12.0525H113.076ZM114.571 13.9305C114.571 16.2046 114.89 18.1337 115.529 19.7179C116.194 21.3021 117.152 22.503 118.404 23.3206C119.656 24.1383 121.189 24.5471 123.003 24.5471V27C119.426 27 116.641 25.863 114.648 23.5889C112.68 21.3148 111.697 18.0954 111.697 13.9305H114.571ZM135.511 0.171104H139.152L149.501 27H146.243L143.215 18.7214H131.487L128.421 27H125.163L135.511 0.171104ZM142.257 16.0002L137.504 3.58221H137.236L132.445 16.0002H142.257Z" fill="#0CCAA9"/>
</svg>
